<svg width="240" height="240" viewBox="0 0 240 240" fill="none" xmlns="http://www.w3.org/2000/svg">
<path d="M152.812 175.375C153.146 173.083 153.396 170.875 153.562 168.75C153.771 166.625 153.917 164.542 154 162.5C154.125 160.417 154.188 158.354 154.188 156.312C154.229 154.229 154.25 152.104 154.25 149.938V86.25C154.25 83.6667 154.25 81.0833 154.25 78.5C154.25 75.875 154.188 73.4375 154.062 71.1875C153.979 68.9375 153.833 66.9792 153.625 65.3125C153.458 63.6042 153.188 62.375 152.812 61.625C153.521 61.875 154.354 62.0833 155.312 62.25C156.271 62.4167 157.271 62.5417 158.312 62.625C159.354 62.7083 160.396 62.7708 161.438 62.8125C162.479 62.8542 163.438 62.875 164.312 62.875C165.188 62.875 166.125 62.8542 167.125 62.8125C168.167 62.7708 169.208 62.7083 170.25 62.625C171.292 62.5417 172.292 62.4167 173.25 62.25C174.208 62.0833 175.062 61.875 175.812 61.625C175.438 62.375 175.146 63.6042 174.938 65.3125C174.771 66.9792 174.625 68.9375 174.5 71.1875C174.417 73.4375 174.375 75.875 174.375 78.5C174.375 81.0833 174.375 83.6667 174.375 86.25V149.938C174.375 152.104 174.375 154.229 174.375 156.312C174.417 158.354 174.479 160.417 174.562 162.5C174.688 164.542 174.833 166.625 175 168.75C175.208 170.875 175.479 173.083 175.812 175.375C175.229 175.208 174.417 175.042 173.375 174.875C172.375 174.75 171.312 174.625 170.188 174.5C169.062 174.375 167.958 174.271 166.875 174.188C165.833 174.146 164.958 174.125 164.25 174.125C163.542 174.125 162.646 174.146 161.562 174.188C160.521 174.271 159.438 174.375 158.312 174.5C157.229 174.625 156.188 174.75 155.188 174.875C154.188 175.042 153.396 175.208 152.812 175.375Z" fill="white"/>
<path d="M63.8125 175.375C64.1458 173.083 64.3958 170.875 64.5625 168.75C64.7708 166.625 64.9167 164.542 65 162.5C65.125 160.417 65.1875 158.354 65.1875 156.312C65.2292 154.229 65.25 152.104 65.25 149.938V86.25C65.25 83.6667 65.25 81.0833 65.25 78.5C65.25 75.875 65.1875 73.4375 65.0625 71.1875C64.9792 68.9375 64.8333 66.9792 64.625 65.3125C64.4583 63.6042 64.1875 62.375 63.8125 61.625C64.5208 61.875 65.3542 62.0833 66.3125 62.25C67.2708 62.4167 68.2708 62.5417 69.3125 62.625C70.3542 62.7083 71.3958 62.7708 72.4375 62.8125C73.4792 62.8542 74.4375 62.875 75.3125 62.875C76.1875 62.875 77.125 62.8542 78.125 62.8125C79.1667 62.7708 80.2083 62.7083 81.25 62.625C82.2917 62.5417 83.2917 62.4167 84.25 62.25C85.2083 62.0833 86.0625 61.875 86.8125 61.625C86.4375 62.375 86.1458 63.6042 85.9375 65.3125C85.7708 66.9792 85.625 68.9375 85.5 71.1875C85.4167 73.4375 85.375 75.875 85.375 78.5C85.375 81.0833 85.375 83.6667 85.375 86.25V149.938C85.375 152.104 85.375 154.229 85.375 156.312C85.4167 158.354 85.4792 160.417 85.5625 162.5C85.6875 164.542 85.8333 166.625 86 168.75C86.2083 170.875 86.4792 173.083 86.8125 175.375C86.2292 175.208 85.4167 175.042 84.375 174.875C83.375 174.75 82.3125 174.625 81.1875 174.5C80.0625 174.375 78.9583 174.271 77.875 174.188C76.8333 174.146 75.9583 174.125 75.25 174.125C74.5417 174.125 73.6458 174.146 72.5625 174.188C71.5208 174.271 70.4375 174.375 69.3125 174.5C68.2292 174.625 67.1875 174.75 66.1875 174.875C65.1875 175.042 64.3958 175.208 63.8125 175.375Z" fill="white"/>
<path d="M100.062 89.875C99.6458 88.5 99.1667 86.9792 98.625 85.3125C98.0833 83.6042 97.5 81.875 96.875 80.125C96.25 78.375 95.6042 76.6458 94.9375 74.9375C94.2708 73.1875 93.6042 71.6042 92.9375 70.1875C92.2708 68.7708 91.625 67.5625 91 66.5625C90.375 65.5208 89.7917 64.8125 89.25 64.4375C90.5 64.7708 92.1042 65.0625 94.0625 65.3125C96.0208 65.5625 98.4375 65.6875 101.312 65.6875C104.188 65.6875 106.625 65.5625 108.625 65.3125C110.625 65.0625 112.25 64.7708 113.5 64.4375C113.25 64.9375 113.125 65.7083 113.125 66.75C113.125 67.9167 113.271 69.3542 113.562 71.0625C113.854 72.7708 114.25 74.625 114.75 76.625C115.25 78.625 115.812 80.7083 116.438 82.875C117.062 85 117.688 87.0625 118.312 89.0625L137.688 149.938C138.104 151.312 138.583 152.854 139.125 154.562C139.667 156.229 140.25 157.938 140.875 159.688C141.5 161.438 142.146 163.188 142.812 164.938C143.479 166.646 144.146 168.208 144.812 169.625C145.479 171.042 146.125 172.25 146.75 173.25C147.375 174.292 147.958 175 148.5 175.375C147.708 175.125 146.792 174.917 145.75 174.75C144.75 174.583 143.708 174.458 142.625 174.375C141.542 174.292 140.458 174.229 139.375 174.188C138.292 174.146 137.292 174.125 136.375 174.125C135.458 174.125 134.438 174.146 133.312 174.188C132.229 174.229 131.146 174.292 130.062 174.375C128.979 174.458 127.917 174.583 126.875 174.75C125.875 174.917 125 175.125 124.25 175.375C124.5 174.875 124.625 174.125 124.625 173.125C124.625 171.958 124.458 170.5 124.125 168.75C123.833 167.042 123.438 165.208 122.938 163.25C122.479 161.25 121.938 159.188 121.312 157.062C120.688 154.896 120.062 152.792 119.438 150.75L100.062 89.875Z" fill="white"/>
</svg>
